<svg xmlns="http://www.w3.org/2000/svg" xmlns:xlink="http://www.w3.org/1999/xlink" width="500" zoomAndPan="magnify" viewBox="0 0 375 374.999991" height="500" preserveAspectRatio="xMidYMid meet" version="1.0"><defs><clipPath id="086b1af8ea"><path d="M 17.875 17.875 L 356.875 17.875 L 356.875 356.875 L 17.875 356.875 Z M 17.875 17.875 " clip-rule="nonzero"/></clipPath></defs><path fill="#ffffff" d="M 187.5 87.648438 C 155.496094 87.648438 129.375 113.65625 129.375 145.660156 C 129.375 177.773438 155.496094 203.78125 187.5 203.78125 C 219.5 203.78125 245.625 177.773438 245.625 145.660156 C 245.625 113.65625 219.5 87.648438 187.5 87.648438 Z M 187.5 87.648438 " fill-opacity="1" fill-rule="nonzero"/><g clip-path="url(#086b1af8ea)"><path fill="#ffffff" d="M 187.386719 17.988281 C 93.980469 17.988281 17.875 93.980469 17.875 187.5 C 17.875 239.515625 41.511719 286.105469 78.488281 317.203125 C 78.488281 317.203125 78.488281 317.203125 78.488281 317.316406 C 108.003906 342.082031 145.996094 357.007812 187.386719 357.007812 C 246.414062 357.007812 300.242188 327.15625 331.453125 277.058594 C 348.300781 250.144531 357.121094 219.273438 357.121094 187.5 C 357.121094 155.722656 348.300781 124.738281 331.453125 97.9375 C 300.242188 47.84375 246.414062 17.988281 187.386719 17.988281 Z M 312.34375 265.074219 C 306.914062 273.78125 300.582031 281.46875 293.683594 288.707031 C 276.496094 253.425781 239.96875 229.90625 199.597656 229.90625 L 175.398438 229.90625 C 147.355469 229.90625 121.007812 240.875 101.21875 260.664062 C 92.960938 268.804688 86.402344 278.417969 81.316406 288.820312 C 56.097656 262.472656 40.492188 226.851562 40.492188 187.5 C 40.492188 106.53125 106.417969 40.605469 187.386719 40.605469 C 238.613281 40.605469 285.203125 66.5 312.34375 109.925781 C 326.816406 133.21875 334.503906 160.019531 334.503906 187.5 C 334.503906 214.976562 326.816406 241.777344 312.34375 265.074219 Z M 312.34375 265.074219 " fill-opacity="1" fill-rule="nonzero"/></g></svg>