<?xml version="1.0" encoding="UTF-8" standalone="no"?>
<svg
   xmlns:dc="http://purl.org/dc/elements/1.1/"
   xmlns:cc="http://creativecommons.org/ns#"
   xmlns:rdf="http://www.w3.org/1999/02/22-rdf-syntax-ns#"
   xmlns:svg="http://www.w3.org/2000/svg"
   xmlns="http://www.w3.org/2000/svg"
   xmlns:sodipodi="http://sodipodi.sourceforge.net/DTD/sodipodi-0.dtd"
   xmlns:inkscape="http://www.inkscape.org/namespaces/inkscape"
   width="500"
   zoomAndPan="magnify"
   viewBox="0 0 375 374.999991"
   height="500"
   preserveAspectRatio="xMidYMid meet"
   version="1.0"
   id="svg13"
   sodipodi:docname="account.svg"
   inkscape:version="0.92.4 (5da689c313, 2019-01-14)">
  <metadata
     id="metadata17">
    <rdf:RDF>
      <cc:Work
         rdf:about="">
        <dc:format>image/svg+xml</dc:format>
        <dc:type
           rdf:resource="http://purl.org/dc/dcmitype/StillImage" />
      </cc:Work>
    </rdf:RDF>
  </metadata>
  <sodipodi:namedview
     pagecolor="#ffffff"
     bordercolor="#666666"
     borderopacity="1"
     objecttolerance="10"
     gridtolerance="10"
     guidetolerance="10"
     inkscape:pageopacity="0"
     inkscape:pageshadow="2"
     inkscape:window-width="1920"
     inkscape:window-height="991"
     id="namedview15"
     showgrid="false"
     inkscape:zoom="0.6675088"
     inkscape:cx="699.88076"
     inkscape:cy="455.76396"
     inkscape:window-x="-9"
     inkscape:window-y="-9"
     inkscape:window-maximized="1"
     inkscape:current-layer="svg13" />
  <defs
     id="defs5">
    <clipPath
       id="086b1af8ea">
      <path
         d="M 17.875 17.875 L 356.875 17.875 L 356.875 356.875 L 17.875 356.875 Z M 17.875 17.875 "
         clip-rule="nonzero"
         id="path2" />
    </clipPath>
    <clipPath
       id="986ca6fd1f">
      <path
         id="path3722"
         clip-rule="nonzero"
         d="M 16.582031 107.59375 L 358.582031 107.59375 L 358.582031 267.34375 L 16.582031 267.34375 Z M 16.582031 107.59375 " />
    </clipPath>
  </defs>
  <path
     fill="#ffffff"
     d="M 187.5 87.648438 C 155.496094 87.648438 129.375 113.65625 129.375 145.660156 C 129.375 177.773438 155.496094 203.78125 187.5 203.78125 C 219.5 203.78125 245.625 177.773438 245.625 145.660156 C 245.625 113.65625 219.5 87.648438 187.5 87.648438 Z M 187.5 87.648438 "
     fill-opacity="1"
     fill-rule="nonzero"
     id="path7"
     style="fill:#ffffff" />
  <g
     clip-path="url(#086b1af8ea)"
     id="g11"
     style="fill:#ffffff">
    <path
       d="M 187.386719 17.988281 C 93.980469 17.988281 17.875 93.980469 17.875 187.5 C 17.875 239.515625 41.511719 286.105469 78.488281 317.203125 C 78.488281 317.203125 78.488281 317.203125 78.488281 317.316406 C 108.003906 342.082031 145.996094 357.007812 187.386719 357.007812 C 246.414062 357.007812 300.242188 327.15625 331.453125 277.058594 C 348.300781 250.144531 357.121094 219.273438 357.121094 187.5 C 357.121094 155.722656 348.300781 124.738281 331.453125 97.9375 C 300.242188 47.84375 246.414062 17.988281 187.386719 17.988281 Z M 312.34375 265.074219 C 306.914062 273.78125 300.582031 281.46875 293.683594 288.707031 C 276.496094 253.425781 239.96875 229.90625 199.597656 229.90625 L 175.398438 229.90625 C 147.355469 229.90625 121.007812 240.875 101.21875 260.664062 C 92.960938 268.804688 86.402344 278.417969 81.316406 288.820312 C 56.097656 262.472656 40.492188 226.851562 40.492188 187.5 C 40.492188 106.53125 106.417969 40.605469 187.386719 40.605469 C 238.613281 40.605469 285.203125 66.5 312.34375 109.925781 C 326.816406 133.21875 334.503906 160.019531 334.503906 187.5 C 334.503906 214.976562 326.816406 241.777344 312.34375 265.074219 Z M 312.34375 265.074219 "
       id="path9"
       fill-rule="nonzero"
       fill-opacity="1"
       fill="#ffffff"
       style="fill:#ffffff" />
  </g>
  <g
     id="g3729"
     clip-path="url(#986ca6fd1f)"
     transform="matrix(0.62200645,0,0,0.55327185,70.742879,158.63844)"
     style="fill:#3333ab;fill-opacity:1">
    <path
       id="path3727"
       d="m 187,267.26562 c -0.043,-0.0117 -0.0898,-0.0234 -0.13672,-0.0391 C 126.48047,249.14062 16.585938,235.08984 16.585938,235.08984 l 7.992187,-27.79297 c 91.746095,8.21485 160.898435,53.0586 162.925785,54.38672 2.02734,-1.32812 71.17968,-46.17187 162.92578,-54.38672 l 7.99218,27.79297 c 0,0 -109.89453,14.05078 -170.27734,32.13672 -0.0469,0.0156 -0.0898,0.0274 -0.13672,0.0391 -0.11328,0.0742 -0.27734,0.10938 -0.5039,0.0899 -0.22657,0.0195 -0.39063,-0.0156 -0.50391,-0.0899 z m 0.45703,-5.55468 c 0,0 2.05469,-0.71875 0.0625,-0.0195 l 0.0312,0.0195 -0.0469,-0.0156 z m 148.71484,-80.21485 -9.61328,3.32422 5.91016,7.97266 c 0,0 -87.19531,17.64453 -136.9375,60.67187 0,0 67.72266,-44.90234 150.89453,-54.71093 z m -297.335932,0 9.613281,3.32422 -5.910157,7.97266 c 0,0 87.195308,17.64453 136.941408,60.67187 0,0 -67.72656,-44.90234 -150.898439,-54.71093 z M 199.46875,145.32422 c 0,0 30.08984,-35.89844 85.67969,-37.69141 l 49.03125,68.625 c 0,0 -105.60938,37.63281 -139.78125,73.40625 0,0 40.5,-49.28125 125.5039,-77.74219 l -38.96093,-56.34765 c 0,0 -38.74219,-2.20703 -81.47266,29.75 z m -23.92578,0 c 0,0 -30.08985,-35.89844 -85.679689,-37.69141 l -49.03125,68.625 c 0,0 105.605469,37.63281 139.777339,73.40625 0,0 -40.49609,-49.28125 -125.499995,-77.74219 l 38.957031,-56.34765 c 0,0 38.746094,-2.20703 81.476564,29.75 z m 0,0"
       inkscape:connector-curvature="0"
       style="fill:#3333ab;fill-opacity:1;fill-rule:evenodd" />
  </g>
</svg>
