<svg xmlns="http://www.w3.org/2000/svg" xmlns:xlink="http://www.w3.org/1999/xlink" width="500" zoomAndPan="magnify" viewBox="0 0 375 374.999991" height="500" preserveAspectRatio="xMidYMid meet" version="1.0"><defs><clipPath id="58f489cfa4"><path d="M 11.839844 24.355469 L 362.839844 24.355469 L 362.839844 350.605469 L 11.839844 350.605469 Z M 11.839844 24.355469 " clip-rule="nonzero"/></clipPath></defs><g clip-path="url(#58f489cfa4)"><path fill="#ffffff" d="M 19.109375 201.636719 L 62.300781 201.636719 C 66.230469 201.636719 69.433594 204.84375 69.433594 208.773438 L 69.433594 343.453125 C 69.433594 347.382812 66.230469 350.585938 62.300781 350.585938 L 19.109375 350.585938 C 15.179688 350.585938 11.976562 347.382812 11.976562 343.453125 L 11.976562 208.773438 C 11.976562 204.84375 15.179688 201.636719 19.109375 201.636719 Z M 40.703125 121.007812 C 46.984375 121.007812 52.6875 123.46875 56.910156 127.472656 L 115.472656 95.144531 C 115.175781 93.652344 115.019531 92.109375 115.019531 90.53125 C 115.019531 77.527344 125.5625 66.984375 138.566406 66.984375 C 150.875 66.984375 160.980469 76.433594 162.019531 88.476562 L 216.058594 100.511719 C 220.136719 93.5 227.730469 88.785156 236.425781 88.785156 C 242.050781 88.785156 247.21875 90.757812 251.265625 94.050781 L 311.628906 54.300781 C 311.050781 52.257812 310.742188 50.105469 310.742188 47.882812 C 310.742188 34.878906 321.285156 24.335938 334.289062 24.335938 C 347.292969 24.335938 357.835938 34.878906 357.835938 47.882812 C 357.835938 60.886719 347.292969 71.429688 334.289062 71.429688 C 328.664062 71.429688 323.5 69.453125 319.449219 66.160156 L 259.085938 105.914062 C 259.664062 107.953125 259.972656 110.105469 259.972656 112.332031 C 259.972656 125.335938 249.429688 135.875 236.425781 135.875 C 224.117188 135.875 214.011719 126.425781 212.972656 114.386719 L 158.933594 102.351562 C 154.855469 109.363281 147.261719 114.078125 138.566406 114.078125 C 132.285156 114.078125 126.582031 111.621094 122.359375 107.613281 L 63.796875 139.941406 C 64.09375 141.433594 64.25 142.976562 64.25 144.554688 C 64.25 157.558594 53.710938 168.101562 40.707031 168.101562 C 27.703125 168.101562 17.160156 157.558594 17.160156 144.554688 C 17.160156 131.550781 27.703125 121.007812 40.703125 121.007812 Z M 312.695312 104.964844 C 308.765625 104.964844 305.558594 108.167969 305.558594 112.097656 L 305.558594 343.453125 C 305.558594 347.382812 308.765625 350.585938 312.695312 350.585938 L 355.882812 350.585938 C 359.8125 350.585938 363.019531 347.382812 363.019531 343.453125 L 363.019531 112.097656 C 363.019531 108.167969 359.8125 104.964844 355.882812 104.964844 Z M 214.832031 169.414062 C 229.230469 169.414062 243.625 169.414062 258.023438 169.414062 C 261.953125 169.414062 265.15625 172.617188 265.15625 176.546875 C 265.15625 232.183594 265.15625 287.816406 265.15625 343.453125 C 265.15625 347.382812 261.953125 350.585938 258.023438 350.585938 C 243.625 350.585938 229.230469 350.585938 214.832031 350.585938 C 210.902344 350.585938 207.699219 347.382812 207.699219 343.453125 C 207.699219 287.816406 207.699219 232.183594 207.699219 176.546875 C 207.699219 172.617188 210.902344 169.414062 214.832031 169.414062 Z M 116.972656 147.613281 C 113.042969 147.613281 109.835938 150.820312 109.835938 154.75 C 109.835938 217.648438 109.835938 280.550781 109.835938 343.453125 C 109.835938 347.382812 113.042969 350.585938 116.972656 350.585938 C 131.367188 350.585938 145.765625 350.585938 160.160156 350.585938 C 164.089844 350.585938 167.296875 347.382812 167.296875 343.453125 C 167.296875 280.550781 167.296875 217.652344 167.296875 154.75 C 167.296875 150.820312 164.089844 147.613281 160.160156 147.613281 C 145.765625 147.613281 131.367188 147.613281 116.972656 147.613281 Z M 116.972656 147.613281 " fill-opacity="1" fill-rule="evenodd"/></g></svg>