<svg xmlns="http://www.w3.org/2000/svg" xmlns:xlink="http://www.w3.org/1999/xlink" width="500" zoomAndPan="magnify" viewBox="0 0 375 374.999991" height="500" preserveAspectRatio="xMidYMid meet" version="1.0"><defs><clipPath id="986ca6fd1f"><path d="M 16.582031 107.59375 L 358.582031 107.59375 L 358.582031 267.34375 L 16.582031 267.34375 Z M 16.582031 107.59375 " clip-rule="nonzero"/></clipPath></defs><g clip-path="url(#986ca6fd1f)"><path fill="#ffffff" d="M 187 267.265625 C 186.957031 267.253906 186.910156 267.242188 186.863281 267.226562 C 126.480469 249.140625 16.585938 235.089844 16.585938 235.089844 L 24.578125 207.296875 C 116.324219 215.511719 185.476562 260.355469 187.503906 261.683594 C 189.53125 260.355469 258.683594 215.511719 350.429688 207.296875 L 358.421875 235.089844 C 358.421875 235.089844 248.527344 249.140625 188.144531 267.226562 C 188.097656 267.242188 188.054688 267.253906 188.007812 267.265625 C 187.894531 267.339844 187.730469 267.375 187.503906 267.355469 C 187.277344 267.375 187.113281 267.339844 187 267.265625 Z M 187.457031 261.710938 C 187.457031 261.710938 189.511719 260.992188 187.519531 261.691406 L 187.550781 261.710938 L 187.503906 261.695312 Z M 336.171875 181.496094 L 326.558594 184.820312 L 332.46875 192.792969 C 332.46875 192.792969 245.273438 210.4375 195.53125 253.464844 C 195.53125 253.464844 263.253906 208.5625 346.425781 198.753906 Z M 38.835938 181.496094 L 48.449219 184.820312 L 42.539062 192.792969 C 42.539062 192.792969 129.734375 210.4375 179.480469 253.464844 C 179.480469 253.464844 111.753906 208.5625 28.582031 198.753906 Z M 199.46875 145.324219 C 199.46875 145.324219 229.558594 109.425781 285.148438 107.632812 L 334.179688 176.257812 C 334.179688 176.257812 228.570312 213.890625 194.398438 249.664062 C 194.398438 249.664062 234.898438 200.382812 319.902344 171.921875 L 280.941406 115.574219 C 280.941406 115.574219 242.199219 113.367188 199.46875 145.324219 Z M 175.542969 145.324219 C 175.542969 145.324219 145.453125 109.425781 89.863281 107.632812 L 40.832031 176.257812 C 40.832031 176.257812 146.4375 213.890625 180.609375 249.664062 C 180.609375 249.664062 140.113281 200.382812 55.109375 171.921875 L 94.066406 115.574219 C 94.066406 115.574219 132.8125 113.367188 175.542969 145.324219 Z M 175.542969 145.324219 " fill-opacity="1" fill-rule="evenodd"/></g></svg>