<svg xmlns="http://www.w3.org/2000/svg" xmlns:xlink="http://www.w3.org/1999/xlink" width="500" zoomAndPan="magnify" viewBox="0 0 375 374.999991" height="500" preserveAspectRatio="xMidYMid meet" version="1.0"><defs><clipPath id="3cdf33c074"><path d="M 10.664062 11 L 364 11 L 364 364.664062 L 10.664062 364.664062 Z M 10.664062 11 " clip-rule="nonzero"/></clipPath></defs><g clip-path="url(#3cdf33c074)"><path fill="#ffffff" d="M 193.261719 134.238281 C 210.238281 134.238281 216.035156 143.425781 214.570312 156.136719 L 200.679688 280.730469 C 199.882812 288.019531 203.84375 290.738281 209.539062 285.628906 C 218.476562 277.609375 230.054688 288.8125 211.558594 305.421875 C 199.113281 316.574219 189.851562 326.132812 173.296875 325.535156 C 157.066406 324.957031 151.269531 315.773438 152.738281 303.058594 L 166.605469 178.464844 C 167.417969 171.1875 163.4375 168.46875 157.761719 173.546875 C 148.800781 181.585938 137.25 170.386719 155.746094 153.777344 C 167.402344 143.328125 176.289062 134.269531 193.261719 134.238281 Z M 183.625 56.050781 C 200.851562 56.050781 214.839844 70.015625 214.839844 87.265625 C 214.839844 104.511719 200.851562 118.476562 183.625 118.476562 C 166.375 118.507812 152.386719 104.511719 152.386719 87.265625 C 152.386719 70.015625 166.375 56.03125 183.625 56.050781 Z M 187.234375 11.023438 C 89.660156 11.023438 10.53125 90.132812 10.53125 187.734375 C 10.53125 285.304688 89.664062 364.445312 187.242188 364.445312 C 284.839844 364.445312 363.945312 285.304688 363.972656 187.734375 C 363.941406 90.132812 284.835938 11.023438 187.234375 11.023438 Z M 187.234375 11.023438 " fill-opacity="1" fill-rule="nonzero"/></g></svg>